<?xml version="1.0" encoding="UTF-8" standalone="no"?>
<!DOCTYPE svg PUBLIC "-//W3C//DTD SVG 1.1//EN"
 "http://www.w3.org/Graphics/SVG/1.1/DTD/svg11.dtd">
<!-- Generated by graphviz version 2.43.0 (0)
 -->
<!-- Title: G Pages: 1 -->
<svg width="488pt" height="116pt"
 viewBox="0.00 0.00 488.15 116.21" xmlns="http://www.w3.org/2000/svg" xmlns:xlink="http://www.w3.org/1999/xlink">
<g id="graph0" class="graph" transform="scale(1 1) rotate(0) translate(4 112.21)">
<title>G</title><style>.edge>path:hover{stroke-width:8}</style>
<polygon fill="white" stroke="transparent" points="-4,4 -4,-112.21 484.15,-112.21 484.15,4 -4,4"/>
<!-- lissajou_anim -->
<g id="node1" class="node">
<title>lissajou_anim</title><style>.edge>path:hover{stroke-width:8}</style>
<ellipse fill="#a83838" stroke="black" cx="315.27" cy="-44.21" rx="48.04" ry="18"/>
<text text-anchor="middle" x="315.27" y="-41.71" font-family="Helvetica,sans-Serif" font-size="10.00" fill="#ffffff">lissajou.anim</text>
</g>
<!-- lissajou_lissajou -->
<g id="node2" class="node">
<title>lissajou_lissajou</title><style>.edge>path:hover{stroke-width:8}</style>
<ellipse fill="#ac4949" stroke="black" cx="439.85" cy="-21.21" rx="40.11" ry="21.43"/>
<text text-anchor="middle" x="439.85" y="-24.21" font-family="Helvetica,sans-Serif" font-size="10.00" fill="#ffffff">lissajou.</text>
<text text-anchor="middle" x="439.85" y="-13.21" font-family="Helvetica,sans-Serif" font-size="10.00" fill="#ffffff">lissajou</text>
</g>
<!-- lissajou_anim&#45;&gt;lissajou_lissajou -->
<g id="edge1" class="edge">
<title>lissajou_anim&#45;&gt;lissajou_lissajou</title><style>.edge>path:hover{stroke-width:8}</style>
<path fill="none" stroke="black" d="M358.8,-36.23C369.38,-34.25 380.79,-32.11 391.59,-30.08"/>
<polygon fill="#a83838" stroke="black" points="392.52,-33.47 401.71,-28.18 391.23,-26.59 392.52,-33.47"/>
</g>
<!-- matplotlib -->
<g id="node3" class="node">
<title>matplotlib</title><style>.edge>path:hover{stroke-width:8}</style>
<polygon fill="#23c823" stroke="black" points="194,-108.21 191,-112.21 170,-112.21 167,-108.21 127,-108.21 127,-72.21 194,-72.21 194,-108.21"/>
<text text-anchor="middle" x="160.5" y="-87.71" font-family="Helvetica,sans-Serif" font-size="10.00" fill="#000000">matplotlib</text>
</g>
<!-- matplotlib&#45;&gt;lissajou_anim -->
<g id="edge2" class="edge">
<title>matplotlib&#45;&gt;lissajou_anim</title><style>.edge>path:hover{stroke-width:8}</style>
<path fill="none" stroke="black" d="M194.27,-80.35C215.6,-73.92 243.75,-65.45 267.42,-58.32"/>
<polygon fill="#23c823" stroke="black" points="268.69,-61.59 277.26,-55.36 266.68,-54.89 268.69,-61.59"/>
</g>
<!-- numpy -->
<g id="node4" class="node">
<title>numpy</title><style>.edge>path:hover{stroke-width:8}</style>
<polygon fill="#0c0cf3" stroke="black" points="54,-62.21 51,-66.21 30,-66.21 27,-62.21 0,-62.21 0,-26.21 54,-26.21 54,-62.21"/>
<text text-anchor="middle" x="27" y="-41.71" font-family="Helvetica,sans-Serif" font-size="10.00" fill="#ffffff">numpy</text>
</g>
<!-- numpy&#45;&gt;lissajou_anim -->
<g id="edge3" class="edge">
<title>numpy&#45;&gt;lissajou_anim</title><style>.edge>path:hover{stroke-width:8}</style>
<path fill="none" stroke="black" d="M231,-44.21C239.34,-43.1 248.2,-42.5 256.9,-42.22"/>
<polygon fill="#0c0cf3" stroke="black" points="257.07,-45.72 267.01,-42.04 256.95,-38.72 257.07,-45.72"/>
</g>
<!-- numpy&#45;&gt;lissajou_lissajou -->
<g id="edge4" class="edge">
<title>numpy&#45;&gt;lissajou_lissajou</title><style>.edge>path:hover{stroke-width:8}</style>
<path fill="none" stroke="black" d="M54.09,-42.39C65.22,-42.08 78.31,-42.34 90,-44.21"/>
<path fill="none" stroke="black" d="M91,-44.21C152,-53.98 168.76,-52.37 230,-44.21"/>
<path fill="none" stroke="black" d="M231,-44.21C250.72,-40.87 248.03,-23.54 267,-17.21 307.71,-3.64 320.65,-16.07 363.54,-17.21 372.01,-17.44 381,-17.8 389.72,-18.23"/>
<polygon fill="#0c0cf3" stroke="black" points="389.61,-21.73 399.78,-18.74 389.97,-14.73 389.61,-21.73"/>
</g>
<!-- numpy&#45;&gt;matplotlib -->
<g id="edge5" class="edge">
<title>numpy&#45;&gt;matplotlib</title><style>.edge>path:hover{stroke-width:8}</style>
<path fill="none" stroke="black" d="M91,-44.21C106.97,-46.77 122.19,-56.02 134.2,-65.57"/>
<polygon fill="#0c0cf3" stroke="black" points="132.08,-68.36 141.97,-72.14 136.6,-63.01 132.08,-68.36"/>
</g>
</g>
</svg>
